<?xml version="1.0" standalone="no"?>
<!DOCTYPE svg PUBLIC "-//W3C//DTD SVG 20010904//EN"
 "http://www.w3.org/TR/2001/REC-SVG-20010904/DTD/svg10.dtd">
<svg version="1.0" xmlns="http://www.w3.org/2000/svg"
 width="1152.000000pt" height="928.000000pt" viewBox="0 0 1152.000000 928.000000"
 preserveAspectRatio="xMidYMid meet">

<g transform="translate(0.000000,928.000000) scale(0.100000,-0.100000)"
fill="#000000" stroke="none">
<path d="M0 4640 l0 -4640 5760 0 5760 0 0 4640 0 4640 -5760 0 -5760 0 0
-4640z m4040 4313 c0 -19 -20 -57 -98 -187 -36 -60 -86 -157 -112 -215 -30
-67 -52 -105 -60 -103 -11 3 -11 0 0 -13 11 -13 10 -18 -2 -33 -9 -9 -14 -22
-11 -28 2 -6 -3 -17 -12 -24 -18 -15 -21 0 -6 28 6 12 5 24 -5 37 -13 18 -14
17 -14 -12 0 -17 -7 -36 -15 -43 -8 -7 -15 -20 -15 -29 -1 -22 -37 -64 -50
-56 -6 4 -10 -5 -10 -20 0 -14 4 -24 9 -21 5 4 11 0 14 -6 3 -9 12 -5 27 12
12 14 20 18 16 10 -3 -8 -9 -23 -12 -32 -8 -22 -14 -22 -40 -3 -24 19 -31 18
-38 -1 -3 -8 -2 -13 2 -10 4 2 14 0 22 -5 13 -9 13 -10 0 -8 -37 4 -42 -1 -38
-31 3 -18 -1 -35 -9 -41 -10 -9 -12 -5 -7 22 l6 34 -30 -32 c-27 -28 -32 -30
-55 -18 -31 16 -57 2 -57 -30 0 -13 -5 -27 -12 -31 -7 -4 -8 -3 -4 5 4 6 3 18
-4 26 -7 9 -8 15 0 20 5 3 10 12 10 18 0 7 -12 -6 -25 -28 -38 -61 -30 -32 12
43 81 149 188 306 325 483 57 72 123 160 149 194 81 113 119 154 134 148 8 -3
15 -12 15 -20z m3057 19 c6 -4 44 -48 85 -98 40 -50 123 -151 184 -225 130
-157 237 -306 228 -320 -3 -5 -1 -8 4 -7 6 2 29 -25 51 -59 22 -35 38 -63 36
-63 -3 0 -17 18 -32 41 -31 47 -39 40 -46 -36 -4 -41 0 -59 23 -100 58 -103
99 -173 158 -267 34 -54 66 -115 72 -135 5 -21 14 -45 20 -53 8 -13 10 -12 11
5 1 11 1 32 0 48 l-2 27 35 -36 c20 -21 36 -43 36 -50 0 -11 42 -106 69 -154
25 -47 30 -60 23 -60 -4 0 -16 18 -26 40 -10 22 -21 40 -26 40 -5 0 -21 22
-37 50 -26 47 -49 67 -61 55 -3 -3 6 -33 21 -67 14 -35 21 -55 14 -44 -24 36
-88 120 -130 169 -11 12 -25 34 -33 50 -8 15 -19 27 -24 27 -6 0 -10 7 -10 16
0 8 -7 22 -15 30 -11 11 -13 26 -9 54 5 30 2 45 -15 68 -11 17 -21 35 -21 40
0 11 -93 155 -121 187 -9 11 -46 76 -82 145 -36 69 -76 142 -89 162 -14 20
-31 50 -38 67 -7 17 -16 31 -21 31 -5 0 -9 7 -9 15 0 8 -4 15 -10 15 -5 0 -10
5 -10 11 0 18 -105 191 -144 238 -20 24 -36 38 -36 33 0 -6 5 -14 10 -17 10
-6 64 -105 57 -105 -9 0 -127 198 -127 212 0 25 15 34 37 20z m118 -273 c9
-17 15 -33 13 -35 -3 -2 -12 12 -21 31 -21 43 -13 47 8 4z m45 -93 c0 -12 -5
-7 -19 24 -11 24 -11 24 3 6 9 -11 16 -24 16 -30z m34 -72 c3 -8 2 -12 -4 -9
-6 3 -10 10 -10 16 0 14 7 11 14 -7z m66 -142 c17 -41 30 -76 27 -78 -4 -4
-24 38 -64 136 -8 19 -10 31 -5 25 5 -5 24 -43 42 -83z m-3640 -102 c0 -5 -4
-10 -10 -10 -5 0 -10 5 -10 10 0 6 5 10 10 10 6 0 10 -4 10 -10z m3700 -41 c0
-6 -4 -7 -10 -4 -5 3 -10 11 -10 16 0 6 5 7 10 4 6 -3 10 -11 10 -16z m-2735
1 c4 -7 -3 -9 -22 -5 -15 3 -22 2 -15 -1 16 -7 16 -27 0 -22 -7 3 -19 -2 -27
-10 -12 -12 -12 -15 0 -23 11 -7 12 -9 0 -9 -8 0 -11 -7 -8 -19 3 -12 0 -18
-7 -15 -6 2 -19 -8 -28 -24 -25 -43 -133 -185 -151 -201 -11 -9 -17 -10 -17
-2 0 6 -5 11 -11 11 -5 0 -8 -4 -5 -9 3 -5 -1 -12 -9 -15 -30 -11 -27 24 5 64
18 23 35 39 38 36 3 -3 -1 -14 -9 -23 -13 -16 -12 -17 4 -4 10 8 15 21 12 29
-7 18 38 76 134 175 72 73 102 90 116 67z m1915 -12 c12 -13 26 -32 31 -43 6
-11 -3 -6 -18 12 -16 18 -40 36 -53 42 -24 9 -24 10 -3 10 12 1 32 -9 43 -21z
m-20 -58 c6 -11 8 -20 6 -20 -3 0 -10 9 -16 20 -6 11 -8 20 -6 20 3 0 10 -9
16 -20z m884 -27 c9 -18 14 -33 12 -33 -6 0 -36 55 -36 66 0 11 5 3 24 -33z
m-3808 5 c-4 -35 -55 -130 -66 -123 -14 8 -12 32 2 41 7 4 8 3 4 -4 -4 -7 -2
-12 3 -12 6 0 11 9 11 21 0 13 -4 18 -12 13 -8 -4 -10 -3 -5 2 5 5 12 9 15 9
4 -1 15 16 24 37 19 43 27 48 24 16z m3070 -141 c65 -69 108 -131 102 -149 -2
-6 -17 7 -34 31 -16 23 -41 56 -56 74 -15 18 -31 40 -34 50 -3 10 -12 16 -19
14 -15 -6 -35 11 -35 30 0 24 17 13 76 -50z m1064 33 c6 -11 8 -20 6 -20 -3 0
-10 9 -16 20 -6 11 -8 20 -6 20 3 0 10 -9 16 -20z m-4340 -60 c-21 -45 -40
-64 -40 -41 0 13 54 100 59 95 3 -2 -6 -27 -19 -54z m4426 -75 c18 -34 10 -26
-29 27 -15 20 -27 40 -27 45 1 11 37 -36 56 -72z m-3556 -55 c-6 -11 -13 -20
-16 -20 -2 0 0 9 6 20 6 11 13 20 16 20 2 0 0 -9 -6 -20z m31 -3 c-16 -16 -13
-30 4 -23 13 5 14 2 1 -22 -8 -15 -22 -36 -30 -47 -15 -19 -16 -18 -4 8 10 23
9 30 -3 39 -11 8 -11 9 4 4 9 -3 17 -1 17 4 0 6 -4 10 -10 10 -6 0 -5 10 2 25
6 13 15 22 20 19 6 -4 5 -11 -1 -17z m3563 -13 c3 -8 2 -12 -4 -9 -6 3 -10 10
-10 16 0 14 7 11 14 -7z m-963 -31 c13 -16 12 -17 -3 -4 -10 7 -18 15 -18 17
0 8 8 3 21 -13z m989 -13 c6 -11 8 -20 6 -20 -3 0 -10 9 -16 20 -6 11 -8 20
-6 20 3 0 10 -9 16 -20z m-3721 -60 c-29 -33 -54 -60 -57 -60 -5 0 16 25 72
88 51 55 40 35 -15 -28z m2711 26 c0 -2 -7 -6 -15 -10 -8 -3 -15 -1 -15 4 0 6
7 10 15 10 8 0 15 -2 15 -4z m108 -17 c24 -15 62 -95 62 -129 0 -19 -6 -16
-48 24 -26 25 -56 52 -67 61 -14 12 -16 18 -7 21 8 4 5 11 -10 24 l-23 18 36
-3 c20 -2 46 -9 57 -16z m952 -29 c6 -11 8 -20 6 -20 -3 0 -10 9 -16 20 -6 11
-8 20 -6 20 3 0 10 -9 16 -20z m-3849 -97 c-12 -20 -14 -14 -5 12 4 9 9 14 11
11 3 -2 0 -13 -6 -23z m-14 -45 c-3 -8 -6 -5 -6 6 -1 11 2 17 5 13 3 -3 4 -12
1 -19z m2970 -45 c-3 -10 -5 -4 -5 12 0 17 2 24 5 18 2 -7 2 -21 0 -30z
m-3711 -34 c-9 -19 -15 -29 -16 -22 0 15 22 64 27 60 2 -2 -3 -19 -11 -38z
m739 -21 c-4 -29 -14 -71 -22 -92 -7 -22 -16 -73 -20 -114 -7 -79 -20 -102
-58 -102 l-24 0 15 48 c8 26 19 59 24 73 4 15 24 68 45 119 20 51 34 99 31
106 -3 8 -1 14 5 14 7 0 8 -18 4 -52z m2982 0 c-3 -8 -6 -5 -6 6 -1 11 2 17 5
13 3 -3 4 -12 1 -19z m1102 -6 c47 -23 71 -73 70 -142 l-2 -55 -10 38 c-6 20
-16 37 -24 37 -15 0 -18 16 -4 24 14 9 0 48 -14 42 -7 -2 -18 1 -24 7 -16 16
-14 6 9 -47 12 -25 25 -46 30 -46 6 0 10 -9 10 -20 0 -21 -19 -34 -67 -44 -29
-7 -34 -4 -72 51 -54 74 -52 97 11 131 26 14 45 29 42 34 -8 12 7 9 45 -10z
m-219 -56 c0 -6 -7 -1 -15 10 -8 10 -15 23 -15 28 0 6 7 1 15 -10 8 -10 15
-23 15 -28z m-4985 14 c-11 -4 -30 -18 -42 -29 -13 -12 -23 -17 -23 -12 0 14
50 51 69 50 12 0 11 -2 -4 -9z m338 -35 c-3 -9 -8 -14 -10 -11 -3 3 -2 9 2 15
9 16 15 13 8 -4z m-227 -16 c20 -12 42 -18 53 -14 15 5 38 -12 100 -74 78 -77
93 -102 70 -117 -8 -5 -6 -10 5 -16 17 -10 22 -38 7 -38 -5 0 -17 7 -25 16 -9
8 -16 11 -16 5 0 -25 -20 -8 -48 42 -16 29 -37 58 -45 65 -9 7 -47 15 -85 16
-67 4 -112 18 -112 36 0 4 -3 15 -6 23 -4 11 2 16 18 19 15 2 23 10 24 23 1
11 2 23 3 28 2 12 22 8 57 -14z m3967 -89 l6 -55 -14 50 c-7 28 -13 61 -13 75
-1 43 15 -7 21 -70z m731 -44 c-3 -21 -8 -35 -11 -32 -2 2 -1 20 3 40 3 21 8
35 11 32 2 -2 1 -20 -3 -40z m488 -208 c10 -13 27 -58 39 -99 12 -41 27 -90
34 -109 8 -19 28 -82 45 -140 18 -58 45 -136 60 -175 25 -63 60 -173 60 -189
0 -3 -13 -6 -30 -6 -32 0 -52 23 -65 75 -6 23 -9 26 -14 13 -4 -11 -17 19 -36
82 -22 72 -34 99 -45 97 -10 -1 -15 6 -14 21 0 12 -3 22 -8 22 -4 0 -8 8 -8
18 0 10 -16 47 -35 82 -19 36 -35 58 -35 50 0 -10 -5 -7 -15 7 -10 14 -13 32
-9 47 3 14 1 47 -4 73 -32 143 -24 169 18 56 12 -35 25 -63 28 -63 6 0 -5 163
-13 200 -5 22 -4 21 12 -6 10 -17 26 -42 35 -56z m-198 -51 c8 -12 7 -21 -6
-33 -22 -22 -48 -11 -48 20 0 37 34 45 54 13z m-4950 -38 c31 -8 41 -8 47 3
14 21 11 -21 -4 -64 -15 -43 -27 -59 -27 -35 0 9 -8 21 -17 26 -10 6 -12 11
-5 11 22 0 12 15 -18 27 -16 6 -30 18 -30 27 0 19 3 19 54 5z m3951 -66 c8
-38 -3 -42 -28 -13 -20 24 -21 32 -5 48 15 15 24 6 33 -35z m-3031 0 c-4 -16
-18 -64 -32 -108 -14 -44 -27 -98 -29 -120 -3 -22 -17 -67 -32 -100 -87 -190
-86 -183 -28 -212 59 -29 89 -41 111 -45 24 -4 34 -28 12 -28 -24 0 -19 -23 9
-50 14 -13 25 -28 25 -34 0 -5 -15 4 -32 21 -37 35 -69 53 -93 53 -9 0 -37 16
-62 35 -26 20 -53 33 -60 31 -18 -7 -16 8 7 55 10 23 27 75 36 117 9 43 21 85
26 95 13 25 19 139 7 132 -5 -4 -9 -13 -9 -21 0 -8 -4 -13 -9 -9 -6 3 -9 18
-8 33 2 20 8 27 24 27 25 1 53 22 53 41 0 23 33 84 46 84 6 0 14 7 18 15 10
27 27 17 20 -12z m-914 -44 c0 -5 -4 -9 -10 -9 -5 0 -10 7 -10 16 0 8 5 12 10
9 6 -3 10 -10 10 -16z m4954 5 c22 -8 20 -37 -3 -58 -25 -22 -41 -13 -41 23 0
39 11 48 44 35z m-825 -62 c-1 -15 -2 -15 -6 1 -2 9 -9 14 -15 11 -7 -4 -8 -2
-4 5 10 15 26 4 25 -17z m-4334 -128 c-14 -48 -22 -61 -30 -52 -6 6 31 98 39
98 3 0 -1 -21 -9 -46z m4151 -162 c-18 -16 -18 -16 -6 6 6 13 14 21 18 18 3
-4 -2 -14 -12 -24z m-1079 -112 c55 -71 79 -112 39 -65 -36 42 -32 25 6 -30
17 -24 28 -48 25 -52 -12 -11 -24 7 -83 122 -30 61 -52 106 -47 100 5 -5 32
-39 60 -75z m2103 36 c7 -19 12 -38 11 -42 -2 -4 2 -10 7 -13 5 -3 12 -24 16
-46 7 -38 7 -39 -10 -23 -33 33 -70 158 -46 158 5 0 14 -15 22 -34z m-75 -36
c-10 -11 -20 -18 -23 -15 -3 3 3 14 13 25 10 11 20 18 23 15 3 -3 -3 -14 -13
-25z m-80 -72 c-15 -18 -38 -39 -51 -46 -27 -14 -32 -32 -10 -32 21 0 46 -28
39 -45 -3 -9 0 -22 7 -30 15 -18 -2 -45 -29 -45 -9 0 -37 -21 -61 -46 -25 -25
-84 -72 -132 -104 -54 -36 -83 -61 -77 -67 10 -10 -50 -61 -136 -116 -63 -41
-98 -74 -91 -85 6 -11 99 29 111 48 3 5 16 15 28 21 23 11 -69 -78 -115 -112
l-26 -19 -17 52 c-9 29 -18 59 -20 66 -3 6 0 12 5 12 6 0 10 -8 10 -17 0 -16
1 -16 18 0 14 14 14 19 4 26 -11 7 -11 9 2 14 8 3 16 0 18 -9 2 -12 10 -9 36
12 17 15 32 33 32 39 0 7 7 15 15 19 18 7 20 -5 3 -22 -22 -22 12 -14 40 9 25
21 26 22 5 16 -16 -3 -23 -1 -23 9 0 8 4 14 8 14 5 0 20 9 33 21 13 11 29 24
34 27 6 4 22 23 37 43 22 29 26 44 23 74 -4 27 0 44 11 57 27 29 7 34 -29 8
-22 -16 -27 -18 -17 -6 8 10 53 45 100 77 47 32 119 83 160 113 41 31 77 55
78 56 2 0 -8 -15 -23 -32z m-1784 -130 c19 -18 24 -24 10 -13 -50 38 -93 80
-102 100 -6 11 5 3 23 -17 18 -20 49 -52 69 -70z m827 29 c6 0 12 -3 12 -6 0
-11 -71 -113 -84 -123 -18 -12 -19 0 -2 24 26 37 20 64 -16 60 -3 -1 -1 12 5
29 11 27 15 30 42 24 16 -4 36 -7 43 -8z m-3960 -9 c41 -41 -17 -157 -98 -200
-14 -7 -29 -19 -33 -25 -4 -7 -21 -13 -37 -13 -26 0 -30 4 -30 28 0 31 -25 66
-55 76 -16 6 -17 9 -5 16 8 6 22 10 31 10 26 0 128 50 137 66 8 15 61 54 73
54 3 0 10 -5 17 -12z m5552 -47 c0 -22 25 -45 38 -37 15 9 155 -30 214 -60 58
-29 188 -111 188 -118 0 -3 -30 13 -67 36 -36 22 -73 41 -80 42 -8 1 -18 7
-21 13 -10 16 -71 45 -81 38 -5 -3 -31 -1 -58 5 -91 18 -117 19 -193 6 -162
-29 -250 -95 -282 -213 l-18 -68 6 65 c5 52 4 63 -6 53 -34 -33 -28 -228 11
-364 35 -122 14 -99 -25 27 -52 167 -57 258 -19 327 10 17 40 56 67 84 l50 53
-23 24 c-13 13 -35 30 -51 36 -15 6 -32 22 -38 36 -7 13 -10 24 -8 24 17 0 70
-38 100 -71 20 -23 40 -39 43 -35 3 3 -2 15 -12 26 -12 13 -15 25 -9 37 7 15
8 14 12 -9 3 -25 7 -28 40 -27 52 0 125 32 137 58 8 17 17 21 38 18 18 -2 27
1 27 10 0 8 5 11 10 8 6 -3 10 -14 10 -24z m-6055 -31 c-8 -12 54 -40 87 -39
31 1 100 -17 107 -29 3 -5 20 -16 36 -25 47 -26 6 -21 -124 13 -62 17 -119 30
-125 30 -6 0 -20 -16 -30 -35 -11 -19 -21 -33 -24 -31 -6 7 60 126 70 126 5 0
6 -5 3 -10z m3758 -18 c21 -18 23 -83 3 -115 -7 -12 -23 -62 -35 -112 -29
-121 -83 -295 -91 -295 -4 0 -13 13 -20 30 -10 24 -9 37 3 72 9 24 30 83 47
132 17 50 41 108 52 129 11 22 26 57 33 78 13 35 12 40 -11 74 -24 35 -17 38
19 7z m-1305 -6 c-10 -7 -18 -19 -18 -25 0 -7 -5 -9 -12 -5 -8 5 -9 2 -5 -9 5
-12 -1 -19 -18 -23 -26 -6 -35 -34 -12 -34 24 0 76 -132 64 -164 -11 -29 -24
-17 -36 32 -15 58 -33 102 -43 102 -12 0 -9 59 3 83 13 24 32 38 64 49 30 9
32 9 13 -6z m1286 -12 c3 -8 1 -14 -4 -14 -6 0 -10 5 -10 11 0 8 -5 8 -15 -1
-21 -18 -19 -33 5 -27 11 3 20 4 20 2 0 -2 2 -10 5 -18 4 -10 -1 -13 -17 -11
-13 1 -32 3 -43 4 -11 1 -14 4 -7 7 23 9 12 21 -17 17 -20 -3 -30 0 -35 11 -4
12 0 14 17 10 15 -4 32 1 47 13 26 21 45 20 54 -4z m-3190 -31 c-6 -31 -11
-39 -20 -30 -9 9 6 68 16 62 5 -3 6 -18 4 -32z m2614 9 c2 -7 -3 -12 -12 -12
-9 0 -16 7 -16 16 0 17 22 14 28 -4z m-1459 -37 c49 -53 55 -78 8 -32 -48 47
-72 77 -60 77 6 0 29 -20 52 -45z m-1105 18 c4 -9 2 -21 -4 -27 -7 -7 -10 -6
-10 3 0 7 -4 10 -9 7 -5 -4 -7 3 -4 14 6 24 19 26 27 3z m1896 10 c0 -14 -34
-43 -52 -43 -22 0 -23 5 0 29 16 19 52 28 52 14z m721 -10 c13 -15 12 -15 -11
-3 -34 17 -36 20 -18 20 9 0 22 -7 29 -17z m-367 -24 c-15 -16 -16 -22 -5 -29
10 -5 6 -8 -12 -7 -34 2 -34 6 1 34 34 28 41 29 16 2z m505 -60 c5 -16 -47 21
-79 57 -22 25 -19 24 25 -8 27 -20 51 -42 54 -49z m-2699 33 c0 -11 12 -24 26
-30 20 -10 28 -9 40 3 44 43 71 -25 40 -99 l-14 -34 -72 68 c-60 55 -71 71
-66 88 9 27 46 30 46 4z m1880 8 c0 -5 -2 -10 -4 -10 -3 0 -8 5 -11 10 -3 6
-1 10 4 10 6 0 11 -4 11 -10z m2743 -20 c-10 -12 -36 -31 -58 -42 l-40 -20 35
34 c55 54 102 75 63 28z m-4993 -7 c0 -22 -2 -25 -10 -13 -13 20 -13 40 0 40
6 0 10 -12 10 -27z m525 9 c-3 -3 -11 0 -18 7 -9 10 -8 11 6 5 10 -3 15 -9 12
-12z m1971 -40 c-23 -23 -33 -6 -10 19 12 13 20 16 22 9 3 -7 -3 -19 -12 -28z
m-2875 1 c-12 -20 -14 -14 -5 12 4 9 9 14 11 11 3 -2 0 -13 -6 -23z m984 17
c3 -6 -1 -7 -9 -4 -18 7 -21 14 -7 14 6 0 13 -4 16 -10z m2067 -12 c-7 -7 -12
-21 -12 -32 0 -13 -3 -17 -10 -10 -14 14 0 54 18 54 12 0 13 -3 4 -12z m-2004
-29 c103 -21 167 -41 174 -56 2 -5 1 -26 -3 -48 -6 -36 -6 -37 -8 -9 0 17 -7
37 -14 43 -17 13 -276 73 -287 66 -4 -3 -11 -32 -15 -66 -4 -33 -11 -73 -16
-87 -7 -22 -8 -20 -4 13 2 22 7 67 11 100 8 73 11 78 38 71 11 -4 68 -16 124
-27z m3972 27 c0 -2 -8 -10 -17 -17 -16 -13 -17 -12 -4 4 13 16 21 21 21 13z
m-1270 -33 c0 -24 -12 -38 -32 -39 -11 -1 -15 4 -11 15 14 39 43 55 43 24z
m-917 -13 c-3 -11 -9 -20 -15 -20 -5 0 -4 9 2 20 6 11 12 20 14 20 2 0 2 -9
-1 -20z m-1613 0 c0 -5 -5 -10 -11 -10 -5 0 -7 5 -4 10 3 6 8 10 11 10 2 0 4
-4 4 -10z m-585 -11 c4 -6 5 -12 3 -14 -7 -7 -48 7 -48 16 0 13 37 11 45 -2z
m2695 -29 c0 -27 -2 -29 -30 -24 -16 4 -37 3 -47 -1 -17 -6 -17 -7 0 -20 10
-7 26 -11 36 -8 10 3 22 0 26 -7 9 -14 35 6 35 26 0 8 5 14 10 14 12 0 13 -30
2 -47 -7 -12 -47 -12 -193 -3 -11 1 -19 14 -22 38 -4 20 -5 38 -2 40 2 2 40 6
85 7 45 2 84 6 88 9 10 11 12 6 12 -24z m1600 16 c0 -3 -4 -8 -10 -11 -5 -3
-10 -1 -10 4 0 6 5 11 10 11 6 0 10 -2 10 -4z m300 -21 c0 -8 3 -14 8 -14 4 1
15 1 25 0 17 -1 16 -5 -10 -35 -34 -42 -49 -49 -74 -36 -23 13 -25 38 -3 47 8
3 20 16 25 29 10 27 29 32 29 9z m-3700 -9 c52 -4 133 -14 180 -22 47 -7 101
-13 120 -12 19 1 53 -1 75 -6 22 -4 76 -14 120 -22 112 -21 197 -75 256 -162
34 -50 21 -45 -51 21 -74 67 -127 96 -211 111 -118 23 -561 77 -568 71 -3 -4
-13 -163 -22 -353 l-16 -347 -1 195 c-2 223 8 541 17 536 3 -2 49 -7 101 -10z
m2015 -32 c25 -43 30 -69 7 -42 -11 15 -43 88 -37 88 2 0 15 -21 30 -46z
m1355 27 c0 -6 -3 -12 -8 -15 -13 -8 -240 -35 -432 -51 -102 -8 -206 -19 -230
-23 l-45 -8 2 -49 c0 -28 4 -66 8 -85 5 -26 4 -32 -4 -24 -6 5 -19 45 -28 88
-16 76 -16 79 2 92 10 8 35 14 54 14 20 0 74 6 121 14 47 8 105 14 130 14 56
0 270 21 324 32 58 11 106 12 106 1z m1323 -20 c-61 -7 -90 -31 -104 -82 -8
-33 -9 -33 -4 6 6 59 41 85 108 84 l52 -2 -52 -6z m-2742 -22 c23 -16 69 -94
69 -117 0 -4 -25 18 -55 48 -30 30 -55 62 -55 72 0 23 5 23 41 -3z m1929 17
c0 -2 -8 -10 -17 -17 -16 -13 -17 -12 -4 4 13 16 21 21 21 13z m-4603 -48 c6
-8 7 -21 2 -33 -7 -19 -8 -19 -8 3 -1 15 -12 29 -31 40 -16 9 -30 20 -30 25 0
10 53 -18 67 -35z m5533 16 c0 -2 -9 0 -20 6 -11 6 -20 13 -20 16 0 2 9 0 20
-6 11 -6 20 -13 20 -16z m-3299 -14 c14 -8 19 -7 19 1 0 15 52 2 66 -17 6 -7
19 -14 29 -14 19 0 133 -72 191 -120 17 -14 52 -43 78 -64 48 -39 81 -89 71
-105 -3 -5 0 -15 7 -23 20 -20 61 -109 54 -115 -3 -3 -12 9 -20 28 -21 49 -85
130 -185 235 -70 74 -97 95 -142 112 -133 49 -279 52 -375 7 -27 -14 -75 -49
-106 -80 -46 -45 -61 -70 -88 -141 -18 -48 -43 -144 -55 -213 -27 -146 -28
-146 -15 6 19 209 98 363 230 444 44 27 149 62 170 56 11 -3 23 -1 26 4 7 12
21 11 45 -1z m353 -66 c35 -14 11 -44 -35 -44 -18 0 -19 1 -3 25 18 28 17 27
38 19z m-2517 -41 c-3 -10 -5 -4 -5 12 0 17 2 24 5 18 2 -7 2 -21 0 -30z
m5250 15 c-3 -8 -6 -5 -6 6 -1 11 2 17 5 13 3 -3 4 -12 1 -19z m-4837 -48 l48
-40 -21 -54 -21 -53 -38 16 -38 16 0 78 c0 50 4 77 11 77 6 0 33 -18 59 -40z
m1020 20 c0 -5 -2 -10 -4 -10 -3 0 -8 5 -11 10 -3 6 -1 10 4 10 6 0 11 -4 11
-10z m1340 -10 c0 -5 -5 -10 -11 -10 -5 0 -7 5 -4 10 3 6 8 10 11 10 2 0 4 -4
4 -10z m-3543 -47 c-3 -10 -5 -2 -5 17 0 19 2 27 5 18 2 -10 2 -26 0 -35z
m3383 16 c0 -5 -7 -9 -15 -9 -15 0 -20 12 -9 23 8 8 24 -1 24 -14z m-2623 -46
c-3 -10 -5 -4 -5 12 0 17 2 24 5 18 2 -7 2 -21 0 -30z m3137 15 c-14 -23 -127
-158 -132 -158 -4 0 16 26 103 132 30 38 43 49 29 26z m-1554 -43 c19 -19 30
-35 24 -35 -5 0 -22 16 -37 35 -36 45 -30 45 13 0z m1194 -41 c15 -14 15 -18
-1 -45 -27 -46 -53 -21 -39 37 7 28 18 30 40 8z m1361 -4 c7 -12 -21 -17 -125
-24 -88 -6 -244 -21 -317 -31 -32 -5 -43 -11 -46 -28 -3 -14 -5 -11 -4 8 2 29
4 30 67 38 54 6 343 38 402 44 10 1 20 -2 23 -7z m-3207 -7 c-21 -2 -38 -10
-39 -16 0 -7 0 -84 0 -172 0 -106 -3 -153 -9 -138 -9 22 -13 311 -4 325 3 4
24 7 47 6 l42 -1 -37 -4z m197 -33 c18 -11 40 -33 50 -48 16 -26 16 -27 -2 -7
-42 45 -66 59 -126 72 l-62 13 53 -5 c29 -2 68 -13 87 -25z m1141 -48 c41 -22
115 -124 100 -139 -2 -3 -14 12 -24 34 -11 21 -37 54 -57 73 -33 32 -41 35
-95 35 -58 0 -69 10 -20 17 27 4 67 -4 96 -20z m891 -58 l2 -79 -68 -32 c-38
-18 -79 -33 -92 -33 -22 0 -22 -1 8 -32 17 -18 34 -49 37 -68 l7 -35 -21 28
c-12 15 -27 27 -34 27 -15 0 -66 107 -66 138 0 20 31 39 48 28 8 -4 33 19 116
107 20 21 41 37 48 35 9 -3 14 -31 15 -84z m-1061 19 c-14 -21 -32 -63 -41
-93 l-15 -55 6 50 c7 55 17 79 47 113 30 32 31 27 3 -15z m-537 -77 c1 -54 -5
-42 -12 24 -4 36 -3 48 3 35 5 -11 9 -38 9 -59z m1305 58 c9 -22 8 -24 -9 -24
-8 0 -15 9 -15 20 0 24 15 27 24 4z m-1637 -86 c-3 -8 -6 -5 -6 6 -1 11 2 17
5 13 3 -3 4 -12 1 -19z m1492 -4 c17 -38 6 -42 -14 -5 -8 17 -12 31 -7 31 5 0
14 -12 21 -26z m191 -14 c0 -5 -4 -10 -10 -10 -5 0 -10 5 -10 10 0 6 5 10 10
10 6 0 10 -4 10 -10z m1892 -102 c16 -61 26 -113 24 -115 -2 -2 -44 -8 -92
-13 -79 -7 -151 -22 -221 -44 -19 -6 -23 -4 -23 12 0 12 -11 24 -30 32 -38 16
-60 40 -36 40 24 0 53 70 34 81 -11 7 -10 11 2 19 8 5 22 10 30 10 19 0 227
67 249 80 9 5 21 10 26 10 6 0 22 -50 37 -112z m-3228 71 c9 -48 7 -192 -4
-209 -5 -9 -9 28 -9 103 0 65 -3 122 -6 127 -3 6 -2 10 3 10 5 0 12 -14 16
-31z m2566 -10 c65 -21 170 -77 170 -91 0 -4 -16 4 -36 17 -90 61 -280 94
-357 61 -36 -15 -111 -92 -122 -125 -3 -11 -11 -21 -16 -21 -5 0 -2 17 7 38
10 20 18 47 18 60 1 12 6 22 12 22 6 0 18 7 25 17 8 9 32 25 54 35 50 24 150
19 245 -13z m-2897 -106 c-11 -106 -76 -173 -168 -173 -72 0 -145 11 -145 22
0 5 35 8 78 7 157 -3 219 60 223 229 l1 47 8 -40 c4 -22 5 -63 3 -92z m1167
76 c0 -6 -4 -7 -10 -4 -5 3 -10 11 -10 16 0 6 5 7 10 4 6 -3 10 -11 10 -16z
m340 11 c0 -5 -2 -10 -4 -10 -3 0 -8 5 -11 10 -3 6 -1 10 4 10 6 0 11 -4 11
-10z m435 -54 c0 -12 -15 -28 -40 -42 -47 -27 -65 -30 -65 -9 0 8 4 15 9 15 5
0 12 8 16 19 12 37 80 52 80 17z m1238 7 c-7 -2 -21 -2 -30 0 -10 3 -4 5 12 5
17 0 24 -2 18 -5z m-1984 -81 c1 -7 -3 -10 -9 -7 -5 3 -10 18 -9 33 0 24 1 25
9 7 5 -11 9 -26 9 -33z m34 -117 c10 -42 17 -81 17 -88 -1 -24 -23 26 -36 82
-16 67 -17 81 -6 81 5 0 16 -34 25 -75z m580 -5 c-3 -14 -12 -29 -20 -33 -8
-5 -27 -27 -43 -49 l-30 -41 0 42 c0 23 7 57 15 76 13 32 18 35 49 33 32 -3
35 -5 29 -28z m-3868 -111 c5 -5 20 -9 35 -9 26 0 58 -15 50 -24 -9 -8 -148
22 -177 39 -28 15 -27 16 27 9 30 -3 59 -10 65 -15z m3795 -62 c0 -7 9 -19 20
-27 25 -18 26 -40 3 -40 -15 0 -16 -2 -3 -10 13 -8 12 -10 -2 -10 -10 0 -18
-4 -18 -10 0 -5 -6 -7 -13 -4 -10 4 -12 17 -6 52 4 26 5 50 2 55 -2 4 1 7 6 7
6 0 11 -6 11 -13z m3076 -41 c-7 -30 -56 -49 -103 -40 -36 7 -36 24 0 24 12 0
35 9 51 19 17 11 33 18 38 15 4 -3 8 0 8 7 0 7 3 10 6 6 4 -3 4 -17 0 -31z
m-2953 12 c-13 -6 -23 -15 -23 -19 0 -14 -31 -39 -48 -39 -12 0 -9 7 13 25 17
13 26 25 20 25 -14 2 27 19 45 19 9 0 6 -5 -7 -11z m190 -33 c9 -13 20 -43 23
-67 l6 -43 -69 -27 c-37 -14 -75 -26 -83 -26 -34 0 -70 -7 -70 -13 0 -9 -27
-6 -36 4 -4 4 1 9 10 13 23 9 20 24 -6 24 -19 0 -20 2 -8 10 8 5 29 10 46 10
27 0 124 39 98 40 -5 0 -10 16 -11 36 -1 29 4 39 29 54 35 21 46 19 71 -15z
m-2948 -82 c-2 -10 -4 -31 -4 -46 -1 -17 -5 -26 -11 -22 -15 9 -9 85 6 85 7 0
11 -8 9 -17z m-615 -28 c0 -8 -5 -15 -11 -15 -5 0 -7 -4 -4 -10 3 -5 0 -10 -7
-10 -11 0 -11 -2 0 -9 10 -6 10 -10 -3 -21 -10 -8 -15 -9 -15 -1 0 6 -6 10
-12 9 -8 -2 -14 11 -16 33 -3 35 -2 36 32 37 26 1 36 -3 36 -13z m5344 1 c-3
-7 -35 -21 -72 -31 -37 -10 -73 -20 -79 -23 -7 -2 -13 3 -13 12 0 11 9 16 33
16 18 0 38 5 44 11 6 6 26 15 45 19 48 11 48 11 42 -4z m-1224 -75 c0 -4 -18
-14 -40 -21 -30 -10 -44 -10 -52 -2 -8 8 -3 13 18 17 16 3 36 10 44 14 16 9
30 5 30 -8z m-113 -36 c0 -9 -16 -17 -46 -21 -25 -4 -63 -13 -83 -20 -21 -7
-40 -9 -43 -4 -3 5 29 20 72 34 92 30 100 31 100 11z m-1207 -192 c-7 -30 -14
-53 -16 -50 -3 2 0 24 5 48 6 24 11 73 13 109 l2 65 3 -58 c2 -32 -1 -83 -7
-114z m-960 112 c0 -20 -50 -32 -60 -14 -13 19 -2 29 31 29 19 0 29 -5 29 -15z
m2719 -37 c-11 -19 -14 -20 -17 -6 -3 16 -5 16 -28 1 -14 -8 -27 -13 -30 -10
-8 8 49 35 64 30 6 -3 12 3 13 14 0 10 3 13 5 6 3 -7 0 -22 -7 -35z m-1169
-78 c0 -5 -2 -10 -4 -10 -3 0 -8 5 -11 10 -3 6 -1 10 4 10 6 0 11 -4 11 -10z
m158 -62 c35 -11 62 -22 59 -24 -5 -5 -168 16 -181 23 -5 4 -25 -11 -43 -33
l-34 -39 3 39 c3 35 7 41 38 52 40 14 68 11 158 -18z m-781 -32 c-7 -19 -47
-41 -47 -26 0 13 40 53 47 46 3 -3 3 -12 0 -20z m2907 -53 c4 -9 -1 -25 -12
-37 -10 -12 -17 -29 -14 -39 3 -16 5 -15 21 4 15 19 20 20 38 8 17 -10 27 -10
47 -1 22 10 28 8 55 -24 33 -37 41 -55 16 -34 -21 18 -42 6 -50 -28 -3 -17
-15 -38 -26 -48 -19 -17 -19 -18 3 -41 l22 -24 -34 -32 c-19 -18 -44 -39 -54
-47 -18 -14 -18 -13 -12 10 6 22 3 21 -26 -12 -33 -36 -88 -61 -88 -40 0 6
-21 36 -46 67 l-46 56 28 30 c25 27 29 37 26 80 -4 54 -2 57 23 33 15 -16 19
-16 48 -1 l32 16 -27 0 c-16 1 -28 -4 -28 -11 0 -7 -9 1 -19 18 -11 18 -25 34
-32 36 -26 9 0 33 47 46 27 7 56 17 64 22 23 14 37 12 44 -7z m-2044 -68 c0
-8 -7 -15 -15 -15 -16 0 -20 12 -8 23 11 12 23 8 23 -8z m1280 -60 c36 -8 80
-14 99 -15 24 0 32 -4 28 -14 -8 -21 13 -37 35 -25 10 5 16 14 13 20 -4 5 6 9
20 9 21 0 26 -4 23 -22 -2 -13 -12 -31 -22 -40 -10 -10 -15 -18 -10 -18 6 0
15 5 20 10 8 8 15 6 24 -5 10 -12 9 -20 -5 -41 -16 -24 -19 -25 -83 -19 -37 4
-75 9 -84 11 -19 6 -25 24 -8 24 14 0 13 77 -2 86 -16 10 -40 -26 -27 -42 11
-13 -16 -48 -31 -39 -5 3 -10 0 -12 -7 -4 -10 -16 -10 -57 0 -29 7 -56 10 -60
7 -4 -2 8 27 28 65 20 39 38 70 41 70 3 -1 34 -7 70 -15z m-5560 -65 c0 -6
-11 -20 -25 -32 -13 -11 -22 -25 -19 -30 3 -4 -2 -8 -12 -8 -12 0 -8 9 17 39
38 44 39 45 39 31z m6512 -55 c-2 -14 -8 -28 -13 -31 -10 -6 -11 2 -3 34 9 30
22 28 16 -3z m-5288 -6 c-7 -13 -74 -42 -80 -36 -12 12 12 36 39 40 18 2 36 5
40 5 5 1 5 -3 1 -9z m-1234 -9 c0 -5 -4 -10 -10 -10 -5 0 -10 5 -10 10 0 6 5
10 10 10 6 0 10 -4 10 -10z m4069 -24 c8 -10 6 -19 -9 -39 -11 -14 -20 -27
-20 -29 0 -2 17 -12 38 -23 20 -11 53 -32 73 -47 20 -15 41 -28 45 -28 5 0 29
-18 54 -39 35 -31 42 -42 33 -52 -17 -17 -61 3 -139 62 -34 25 -87 63 -118 83
-64 43 -68 48 -60 70 4 11 13 15 27 10 16 -5 19 -3 13 11 -3 9 -4 21 0 26 8
14 50 11 63 -5z m-4049 -126 c4 -31 11 -37 60 -57 52 -21 53 -22 26 -29 -37
-9 -65 7 -121 73 l-48 55 39 -4 c36 -4 39 -7 44 -38z m1966 25 c-3 -8 -1 -15
4 -15 4 0 15 -21 23 -47 30 -94 30 -99 -4 -127 -17 -14 -36 -23 -41 -20 -6 4
-8 3 -5 -3 3 -5 -21 -29 -54 -54 -67 -48 -108 -83 -320 -268 l-142 -124 -52
17 c-67 21 -78 20 -35 -4 44 -24 29 -25 -36 -3 -45 15 -47 17 -24 24 14 4 18
7 9 8 -9 1 -19 8 -23 16 -3 9 -12 12 -22 8 -14 -5 -15 -3 -5 16 7 12 18 24 26
27 7 3 16 13 20 22 3 9 -12 -1 -34 -23 -23 -21 -41 -45 -41 -52 0 -19 -18 -16
-22 4 -2 12 22 41 66 83 86 81 123 108 78 56 -18 -21 -31 -40 -28 -43 9 -9 84
42 84 57 0 8 3 24 7 34 7 15 5 17 -6 11 -8 -5 -5 2 6 14 29 34 131 111 138
105 3 -3 10 4 16 15 7 12 17 18 26 15 8 -3 26 6 42 20 15 14 30 23 33 20 3 -3
-5 -14 -17 -24 -22 -18 -31 -40 -15 -40 8 0 99 76 192 161 62 58 84 64 60 18
-10 -17 -9 -24 2 -36 13 -12 17 -11 32 12 11 17 14 30 8 38 -14 18 -4 60 19
80 26 21 43 22 35 2z m1855 -25 c15 -8 17 -15 10 -29 -7 -12 -4 -28 13 -58 13
-22 25 -51 28 -64 3 -13 16 -48 29 -77 20 -46 21 -54 9 -63 -13 -9 -12 -10 2
-5 26 8 32 -11 13 -50 -22 -46 -42 -43 -55 9 -12 45 -57 159 -96 242 -13 28
-24 60 -24 72 0 31 34 42 71 23z m2342 -60 c-3 -52 -52 -245 -60 -236 -6 5 14
172 28 244 14 70 35 64 32 -8z m-6310 -33 c-4 -6 -12 -3 -20 8 -20 28 -16 41
7 20 11 -10 17 -22 13 -28z m4025 8 c-3 -3 -9 2 -12 12 -6 14 -5 15 5 6 7 -7
10 -15 7 -18z m-293 -15 c9 -41 -2 -56 -26 -34 -22 20 -24 35 -7 52 19 19 26
15 33 -18z m1317 -8 c6 -22 15 -32 28 -32 11 0 20 -4 20 -10 0 -19 -40 -10
-54 13 -22 35 -30 70 -15 65 7 -2 17 -19 21 -36z m1329 -73 c-11 -35 -22 -88
-26 -116 l-6 -53 35 0 c38 0 51 -12 42 -37 -5 -11 -10 -12 -19 -4 -24 19 -48
-11 -78 -100 -26 -74 -28 -85 -14 -95 22 -16 19 -44 -5 -44 -32 0 -36 -11
-136 -415 -37 -148 -51 -221 -44 -223 7 -3 2 -15 -13 -31 -26 -28 -41 -71 -25
-71 5 0 18 5 28 10 16 8 18 7 14 -4 -8 -21 -59 -39 -86 -31 -28 9 -158 106
-210 158 -44 42 -46 59 -17 106 l21 34 26 -25 c15 -13 53 -51 86 -83 l58 -59
19 23 c11 13 19 33 19 45 0 12 9 49 20 82 11 32 24 95 29 139 11 89 24 146 52
220 10 28 19 62 19 77 0 15 11 48 25 74 18 33 22 50 14 55 -7 4 -8 18 -3 40
l8 34 6 -35 6 -35 18 40 c10 22 29 72 42 110 57 172 103 289 111 282 2 -2 -5
-33 -16 -68z m-2728 -38 c15 -6 27 -17 27 -26 0 -19 -16 -20 -23 -1 -3 8 -16
16 -28 18 -15 2 -23 11 -26 28 -3 22 -2 23 9 8 7 -10 25 -22 41 -27z m727 -5
c24 -24 50 -41 57 -39 7 3 26 -6 43 -18 73 -58 89 -69 98 -69 5 0 36 -28 69
-62 33 -35 98 -97 145 -138 108 -95 129 -131 121 -198 l-6 -50 -47 28 c-27 16
-51 26 -54 22 -4 -3 8 -22 26 -41 l33 -36 -39 36 c-33 31 -37 39 -27 57 6 11
11 38 11 59 0 37 0 37 -16 15 -8 -12 -19 -20 -24 -17 -4 3 -11 -3 -15 -12 -3
-10 -1 -19 4 -21 6 -2 11 -8 11 -14 0 -6 -20 8 -45 31 -48 44 -65 50 -85 26
-20 -24 -29 -17 -20 14 9 33 10 32 -227 280 -79 82 -143 152 -143 156 0 4 6 2
14 -4 11 -9 17 -6 30 14 9 14 22 25 29 25 7 0 32 -20 57 -44z m-3782 6 c2 -7
-3 -12 -12 -12 -9 0 -16 7 -16 16 0 17 22 14 28 -4z m3506 -18 c3 -8 2 -12 -4
-9 -6 3 -10 10 -10 16 0 14 7 11 14 -7z m-591 -31 c7 -36 -2 -55 -22 -48 -13
4 -22 -6 -35 -35 -9 -22 -21 -40 -25 -40 -4 0 -13 18 -20 40 -11 36 -15 40
-44 40 -26 0 -33 4 -34 20 -2 17 3 20 33 17 26 -3 37 0 44 14 6 11 24 19 48
21 47 4 49 4 55 -29z m2197 23 c0 -3 -4 -8 -10 -11 -5 -3 -10 -1 -10 4 0 6 5
11 10 11 6 0 10 -2 10 -4z m-1077 -38 c18 -13 53 -41 78 -63 26 -22 66 -54 90
-72 24 -18 56 -44 71 -58 15 -14 30 -25 33 -25 3 0 49 -38 101 -85 53 -47 100
-85 105 -85 5 0 9 -5 9 -10 0 -15 -49 12 -85 46 -16 16 -34 27 -38 26 -12 -3
-47 17 -47 28 0 5 7 6 17 3 22 -9 8 13 -17 27 -17 9 -19 8 -13 -7 6 -17 5 -17
-13 -3 -45 37 -113 97 -169 149 -33 31 -84 74 -112 95 -29 21 -53 42 -53 47 0
14 8 11 43 -13z m-489 -23 c15 -23 15 -25 0 -25 -10 0 -14 3 -11 6 3 4 2 15
-4 25 -14 28 -4 23 15 -6z m2103 -37 c-3 -8 -6 -5 -6 6 -1 11 2 17 5 13 3 -3
4 -12 1 -19z m-2737 -10 c-1 -23 -21 -58 -34 -58 -7 0 1 57 11 73 9 15 23 6
23 -15z m-3049 -196 c11 -31 33 -100 49 -152 15 -52 42 -133 59 -179 17 -46
31 -91 31 -100 0 -9 14 -59 30 -111 17 -52 30 -103 30 -114 0 -18 58 -187 87
-254 8 -18 24 -37 36 -42 l22 -9 -22 0 c-13 -1 -23 -6 -23 -12 0 -7 11 -9 30
-6 38 8 46 -6 19 -32 -24 -22 -44 -17 -66 16 -96 144 -120 177 -130 180 -8 3
-12 -12 -11 -48 1 -31 -3 -54 -10 -57 -6 -2 -9 -9 -6 -15 2 -7 -3 -21 -11 -32
-16 -19 -16 -19 -12 8 2 15 -9 63 -25 110 -16 45 -33 94 -38 108 -4 14 -13 36
-20 50 -26 49 -30 59 -30 82 0 13 -7 32 -15 43 -8 10 -15 28 -15 39 0 12 -22
66 -50 120 -27 55 -50 106 -50 113 0 7 -15 46 -33 85 -27 60 -31 77 -23 100 5
15 13 27 18 27 12 0 10 38 -3 63 -9 15 -9 22 -1 25 6 2 8 10 5 18 -6 17 -1 17
31 3 16 -8 26 -23 30 -44 4 -19 31 -76 60 -128 30 -53 57 -104 60 -115 4 -11
15 -27 26 -37 19 -17 19 -17 15 6 -3 12 -8 25 -13 28 -5 3 -12 24 -15 47 -4
23 -18 67 -33 99 -14 32 -28 81 -31 109 -2 28 -11 67 -18 86 -7 19 -16 55 -19
80 -7 45 -7 45 29 -28 20 -40 46 -99 56 -130z m2136 176 c-3 -8 -6 -5 -6 6 -1
11 2 17 5 13 3 -3 4 -12 1 -19z m58 -183 c20 -66 52 -153 70 -192 19 -40 32
-73 30 -73 -13 0 -91 180 -140 320 -13 36 -26 74 -30 85 l-8 20 20 -20 c12
-11 37 -74 58 -140z m-1380 -6 c-4 -5 1 -19 11 -30 16 -18 16 -19 1 -13 -9 3
-17 10 -17 16 0 5 -4 6 -10 3 -12 -7 -12 -3 -4 19 3 9 10 16 16 16 5 0 6 -5 3
-11z m-44 -76 c-12 -20 -14 -14 -5 12 4 9 9 14 11 11 3 -2 0 -13 -6 -23z
m4070 1 c10 -9 39 -18 64 -19 26 -2 48 -5 50 -7 2 -2 5 -30 7 -63 l3 -60 -60
-32 c-33 -18 -67 -33 -76 -33 -9 0 -20 -7 -23 -16 -6 -15 -8 -15 -26 1 -23 21
-17 38 11 30 12 -4 19 -2 19 6 0 12 46 87 61 99 9 8 7 40 -3 40 -5 0 -21 -6
-36 -14 -40 -20 -92 -30 -92 -17 0 6 7 11 15 11 8 0 35 10 60 22 l45 22 -27
23 c-16 12 -24 22 -19 23 5 0 17 -7 27 -16z m-3677 -98 c64 -33 104 -61 114
-78 15 -26 15 -29 -6 -51 -24 -26 -28 -48 -11 -78 12 -24 39 -124 38 -142 0
-7 -5 3 -10 21 -8 27 -14 32 -29 27 -22 -7 -28 13 -9 32 11 11 -29 102 -58
132 -9 8 -22 30 -29 48 -13 29 -76 83 -98 83 -5 0 -17 -7 -26 -15 -12 -11 -24
-12 -45 -6 -17 5 -23 10 -14 10 8 1 24 8 35 16 16 12 17 16 5 24 -8 5 -11 16
-8 26 9 21 25 16 151 -49z m3831 54 c3 -6 -1 -7 -9 -4 -18 7 -21 14 -7 14 6 0
13 -4 16 -10z m-4213 -50 c4 0 8 -7 8 -15 0 -9 7 -29 15 -45 9 -17 13 -30 10
-30 -8 0 -65 118 -64 132 1 7 6 1 12 -14 6 -16 14 -28 19 -28z m163 10 c3 -5
2 -10 -4 -10 -5 0 -13 5 -16 10 -3 6 -2 10 4 10 5 0 13 -4 16 -10z m4577 -7
c29 -26 23 -53 -11 -53 -37 0 -44 10 -28 44 14 31 15 31 39 9z m-495 -71 c-3
-10 -5 -5 -6 10 0 15 -5 29 -11 33 -5 3 -6 13 -3 23 5 12 9 8 15 -17 5 -18 7
-40 5 -49z m-7 -38 c0 -8 -5 -12 -10 -9 -6 4 -8 11 -5 16 9 14 15 11 15 -7z
m-589 -11 c13 -16 12 -17 -3 -4 -17 13 -22 21 -14 21 2 0 10 -8 17 -17z m46
-5 c-3 -8 -6 -5 -6 6 -1 11 2 17 5 13 3 -3 4 -12 1 -19z m-4157 -118 c0 -5 -2
-10 -4 -10 -3 0 -8 5 -11 10 -3 6 -1 10 4 10 6 0 11 -4 11 -10z m5516 -46 c-4
-14 -9 -24 -12 -21 -3 2 -2 17 2 31 3 15 9 25 11 22 3 -3 2 -17 -1 -32z m-19
-56 c-3 -8 -6 -5 -6 6 -1 11 2 17 5 13 3 -3 4 -12 1 -19z m-1217 -48 c0 -5 -5
-10 -11 -10 -5 0 -7 5 -4 10 3 6 8 10 11 10 2 0 4 -4 4 -10z m-3419 -70 c-3
-3 -7 -11 -9 -18 -2 -9 4 -11 18 -7 16 5 20 2 20 -14 0 -24 -10 -27 -29 -8
-11 9 -14 9 -18 0 -7 -18 -42 17 -52 53 -5 16 -12 37 -16 46 -5 13 6 9 42 -15
27 -17 47 -34 44 -37z m4616 48 c-3 -8 -6 -5 -6 6 -1 11 2 17 5 13 3 -3 4 -12
1 -19z m-10 -40 c-3 -8 -6 -5 -6 6 -1 11 2 17 5 13 3 -3 4 -12 1 -19z m-5316
-95 c-9 -16 -10 -14 -11 12 0 21 3 26 11 18 8 -8 8 -16 0 -30z m5329 -23 c0
-27 -4 -51 -8 -54 -5 -3 -8 21 -8 54 1 32 4 56 9 53 4 -2 7 -26 7 -53z m-409
-49 c12 -24 33 -54 46 -67 28 -28 29 -48 2 -118 -22 -60 -37 -76 -49 -56 -5 9
-19 10 -45 6 -26 -5 -40 -4 -45 5 -5 8 -10 4 -15 -12 -5 -14 -3 -25 4 -27 16
-5 14 -22 -3 -22 -9 0 -14 -9 -14 -22 1 -13 1 -38 0 -57 -2 -28 -5 -33 -22
-28 -15 4 -25 -2 -36 -21 -20 -36 -12 -10 38 115 22 57 44 100 48 98 4 -3 14
3 21 13 13 15 12 16 -3 3 -16 -12 -18 -11 -18 3 0 9 7 33 15 53 8 19 15 49 15
65 0 16 -7 45 -15 65 -18 42 -19 75 -4 90 14 14 45 -20 80 -86z m-4866 41 c-6
-7 -35 18 -35 31 0 5 9 2 20 -8 11 -10 18 -20 15 -23z m840 8 c3 -5 1 -10 -4
-10 -6 0 -11 5 -11 10 0 6 2 10 4 10 3 0 8 -4 11 -10z m-806 -104 c1 -13 -3
-16 -8 -10 -9 9 -16 58 -11 79 3 12 17 -41 19 -69z m818 42 c-3 -8 -6 -5 -6 6
-1 11 2 17 5 13 3 -3 4 -12 1 -19z m21 -93 c0 -16 -2 -15 -8 5 -4 14 -8 36 -8
50 0 22 1 22 8 -5 4 -16 8 -39 8 -50z m-109 35 c16 -38 8 -60 -22 -60 -32 0
-51 24 -43 54 5 21 14 27 46 35 3 0 11 -13 19 -29z m4492 -7 c-12 -20 -14 -14
-5 12 4 9 9 14 11 11 3 -2 0 -13 -6 -23z m-21 -42 c-5 -11 -15 -23 -21 -27 -6
-3 -3 5 6 20 20 30 30 35 15 7z m-5296 -14 c8 -12 8 -22 0 -34 -19 -30 -29
-24 -31 18 -1 41 11 48 31 16z m-284 -7 c0 -5 -7 -10 -15 -10 -8 0 -15 5 -15
10 0 6 7 10 15 10 8 0 15 -4 15 -10z m1250 -110 c6 -36 13 -78 15 -95 5 -29 5
-29 -6 -5 -5 14 -14 54 -19 90 -5 36 -11 81 -14 100 -6 35 -6 35 4 5 6 -16 15
-59 20 -95z m4300 86 c0 -2 -8 -10 -17 -17 -16 -13 -17 -12 -4 4 13 16 21 21
21 13z m-4411 -27 c-16 -10 -23 -4 -14 10 3 6 11 8 17 5 6 -4 5 -9 -3 -15z
m-139 -24 c0 -5 -5 -3 -10 5 -5 8 -10 20 -10 25 0 6 5 3 10 -5 5 -8 10 -19 10
-25z m3378 -26 c-12 -10 -17 -19 -11 -22 7 -4 4 -20 -8 -44 -35 -73 -59 -143
-48 -143 11 0 3 -37 -13 -57 -7 -9 -14 -9 -27 -1 -14 9 -17 18 -11 42 10 43
84 221 106 254 16 25 18 25 25 7 5 -14 1 -25 -13 -36z m-4403 -8 c17 -8 39
-15 50 -16 11 -1 37 -11 57 -23 20 -11 53 -24 73 -28 20 -3 49 -17 65 -31 42
-34 121 -138 160 -208 19 -33 68 -112 110 -175 121 -182 176 -278 220 -380 23
-52 45 -103 51 -112 10 -19 -5 -26 -16 -8 -10 16 -23 12 -36 -11 -9 -18 -5
-29 25 -73 19 -28 53 -71 75 -96 22 -24 38 -46 36 -48 -6 -6 -18 8 -116 128
-180 220 -233 294 -201 275 16 -10 37 -33 45 -51 24 -49 84 -111 112 -116 16
-4 25 -1 25 8 0 7 5 14 10 16 11 3 -18 39 -112 140 -32 34 -58 65 -58 69 0 5
-23 27 -52 49 -53 43 -81 43 -58 0 7 -12 7 -20 2 -16 -6 3 -45 63 -87 134
-138 226 -180 285 -297 407 -63 66 -118 131 -122 145 -17 59 -18 66 -4 50 7
-8 27 -22 43 -29z m1195 13 c0 -8 -5 -12 -10 -9 -6 4 -8 11 -5 16 9 14 15 11
15 -7z m-30 -14 c6 -11 15 -18 20 -15 9 6 30 -25 30 -44 0 -6 -7 -11 -15 -11
-11 0 -15 -11 -15 -39 0 -22 4 -42 9 -45 5 -3 11 -17 13 -31 4 -20 3 -23 -8
-14 -8 6 -14 17 -14 24 0 7 -11 46 -25 87 -14 40 -25 81 -25 91 0 23 17 22 30
-3z m4054 -17 c-12 -50 -35 -87 -44 -73 -6 9 -11 1 -15 -26 -3 -21 -20 -77
-36 -124 -16 -47 -31 -98 -34 -113 -4 -27 -61 -141 -91 -182 -11 -14 -17 -16
-22 -8 -4 7 -13 9 -20 4 -16 -10 -12 -63 7 -77 10 -8 11 -13 3 -18 -7 -4 -12
-15 -12 -25 0 -20 -46 -126 -64 -149 -6 -7 -19 -22 -28 -33 -10 -10 -18 -23
-18 -29 0 -5 -4 -10 -10 -10 -5 0 -19 -18 -30 -40 -14 -27 -25 -38 -35 -34
-10 4 -15 0 -15 -10 0 -9 -31 -77 -70 -152 -38 -75 -67 -141 -63 -147 3 -6 1
-7 -5 -3 -7 4 -12 1 -12 -6 0 -8 -9 -21 -20 -31 -11 -9 -20 -26 -20 -37 0 -11
-4 -20 -10 -20 -5 0 -18 -17 -29 -37 -15 -29 -20 -33 -21 -17 0 11 18 49 40
83 72 112 147 263 225 456 87 214 100 241 111 237 5 -2 10 2 13 9 2 7 -1 9 -8
5 -16 -10 -15 -7 30 106 70 179 101 248 109 243 15 -9 41 7 36 22 -4 9 1 17
14 20 11 3 20 10 20 15 0 5 5 6 10 3 10 -6 11 -5 15 35 8 69 35 136 67 163 18
15 34 27 35 27 2 0 0 -12 -3 -27z m-3994 -79 c0 -8 -5 -12 -10 -9 -6 4 -8 11
-5 16 9 14 15 11 15 -7z m126 -98 c3 -12 4 -42 1 -67 -3 -41 -4 -40 -5 13 -2
45 -7 62 -24 79 l-23 21 22 -11 c13 -6 25 -22 29 -35z m2836 -32 c-19 -13 -22
-25 -23 -82 l-2 -67 -7 55 c-7 57 6 103 32 113 23 8 22 -3 0 -19z m849 -5 c-5
-13 -10 -19 -10 -12 -1 15 10 45 15 40 3 -2 0 -15 -5 -28z m-606 1 c3 -5 1
-10 -4 -10 -6 0 -11 5 -11 10 0 6 2 10 4 10 3 0 8 -4 11 -10z m-3268 -87 c54
-57 122 -147 193 -253 35 -52 76 -112 92 -132 17 -21 27 -38 24 -38 -8 0 -114
143 -181 245 -33 50 -86 116 -117 147 -32 32 -58 60 -58 63 0 12 13 3 47 -32z
m3028 17 c3 -5 1 -10 -4 -10 -6 0 -11 5 -11 10 0 6 2 10 4 10 3 0 8 -4 11 -10z
m-2821 -135 c3 -11 -3 -2 -14 20 -11 22 -19 51 -19 65 0 17 4 11 13 -20 7 -25
16 -54 20 -65z m3032 67 c-16 -15 -25 -20 -21 -12 12 21 39 48 44 43 3 -2 -8
-16 -23 -31z m-3769 -114 c-3 -8 -6 -5 -6 6 -1 11 2 17 5 13 3 -3 4 -12 1 -19z
m772 -33 c0 -5 -6 1 -14 15 -8 14 -14 30 -14 35 0 6 6 -1 14 -15 8 -14 14 -29
14 -35z m2721 -25 c0 -5 -5 -10 -11 -10 -5 0 -7 5 -4 10 3 6 8 10 11 10 2 0 4
-4 4 -10z m114 -25 c-9 -14 -18 -25 -21 -25 -5 0 5 18 20 38 17 22 18 13 1
-13z m-3392 -301 c117 -272 118 -273 260 -496 66 -103 117 -192 113 -198 -11
-18 -31 -11 -61 22 -16 18 -22 27 -14 22 8 -6 25 -14 38 -17 25 -6 25 -5 -25
64 -18 26 -33 50 -33 54 0 5 -12 24 -27 44 -58 75 -184 308 -250 461 -8 19
-19 43 -24 52 -5 10 -9 22 -9 28 0 6 -13 40 -30 75 -16 35 -30 68 -29 72 0 8
61 -113 91 -183z m668 126 c0 -10 -3 -21 -7 -23 -5 -3 -8 8 -8 23 0 15 3 26 8
23 4 -2 7 -13 7 -23z m-1010 -10 c12 -16 18 -30 13 -30 -5 0 -17 14 -26 30
-10 17 -16 30 -13 30 2 0 14 -13 26 -30z m3574 -32 c-36 -58 -64 -88 -83 -87
-10 0 -8 4 7 9 12 5 25 18 29 27 7 19 62 93 69 93 2 0 -8 -19 -22 -42z m866
-147 c-5 -11 -15 -23 -22 -27 -7 -5 -8 -2 -3 7 21 37 44 55 25 20z m-30 -45
c0 -2 -8 -10 -17 -17 -16 -13 -17 -12 -4 4 13 16 21 21 21 13z m-4009 -273
c13 -16 12 -17 -3 -4 -10 7 -18 15 -18 17 0 8 8 3 21 -13z m49 -58 c13 -14 21
-25 18 -25 -2 0 -15 11 -28 25 -13 14 -21 25 -18 25 2 0 15 -11 28 -25z m3630
-75 c-23 -27 -47 -50 -52 -50 -6 0 11 23 38 50 27 28 50 50 52 50 2 0 -15 -22
-38 -50z m-3490 -84 c0 -10 -78 76 -98 108 -7 12 12 -6 42 -39 31 -33 56 -64
56 -69z"/>
<path d="M3991 8922 c-6 -12 -11 -27 -11 -34 1 -7 8 0 16 15 9 16 13 31 11 34
-3 2 -10 -4 -16 -15z"/>
<path d="M3950 8859 c0 -5 5 -7 10 -4 6 3 10 8 10 11 0 2 -4 4 -10 4 -5 0 -10
-5 -10 -11z"/>
<path d="M3868 8688 c-31 -58 -48 -98 -43 -98 3 0 21 32 40 70 38 75 40 98 3
28z"/>
<path d="M3784 8536 c-8 -22 3 -33 18 -18 9 9 9 15 0 24 -9 9 -13 7 -18 -6z"/>
<path d="M3610 8431 c0 -6 4 -13 10 -16 6 -3 7 1 4 9 -7 18 -14 21 -14 7z"/>
<path d="M3530 8260 c0 -22 -10 -26 -27 -9 -8 8 -13 7 -18 -1 -4 -7 -1 -16 6
-21 17 -11 59 -12 59 -1 0 4 3 17 6 30 5 16 2 22 -10 22 -9 0 -16 -8 -16 -20z"/>
<path d="M3447 8181 c-19 -33 -21 -41 -8 -41 10 0 36 58 29 65 -2 2 -12 -9
-21 -24z"/>
<path d="M7086 8930 c3 -14 10 -29 15 -34 14 -16 10 6 -7 34 l-15 25 7 -25z"/>
<path d="M6310 5260 c0 -5 5 -10 10 -10 6 0 10 5 10 10 0 6 -4 10 -10 10 -5 0
-10 -4 -10 -10z"/>
<path d="M7856 5144 c-8 -21 10 -42 23 -28 6 5 5 16 -3 27 -13 16 -14 16 -20
1z"/>
<path d="M6465 4573 c-11 -3 -24 -9 -29 -14 -5 -5 5 -4 24 1 51 15 55 25 5 13z"/>
<path d="M8761 3851 c-7 -5 -12 -14 -10 -20 3 -6 9 -7 18 -2 7 5 12 14 10 20
-3 6 -9 7 -18 2z"/>
<path d="M8153 3948 c-13 -6 -23 -17 -23 -25 0 -18 35 0 44 22 3 8 4 15 3 14
-1 0 -12 -5 -24 -11z"/>
<path d="M8095 3919 c-8 -11 35 -53 44 -43 3 4 0 9 -6 11 -7 3 -13 13 -13 24
0 21 -15 26 -25 8z"/>
<path d="M3930 3445 c-8 -9 -8 -15 -2 -15 12 0 26 19 19 26 -2 2 -10 -2 -17
-11z"/>
<path d="M3834 3365 c-10 -8 -14 -14 -9 -14 6 0 19 6 29 14 11 8 15 15 10 15
-6 0 -19 -7 -30 -15z"/>
<path d="M3803 3224 c-12 -13 -19 -24 -15 -24 4 0 0 -5 -8 -11 -12 -9 -11 -9
5 -4 11 4 29 7 40 7 25 -1 36 17 24 40 -12 23 -19 22 -46 -8z"/>
<path d="M6786 3295 c4 -10 0 -15 -11 -15 -20 0 -15 -24 7 -28 9 -2 18 4 21
13 7 18 -1 45 -14 45 -4 0 -6 -7 -3 -15z"/>
<path d="M6826 3214 c-9 -24 -9 -24 29 -21 39 2 44 11 16 27 -27 14 -38 13
-45 -6z"/>
<path d="M6940 3139 c0 -6 5 -20 11 -31 9 -16 13 -18 19 -7 5 7 4 21 -1 31
-11 20 -29 24 -29 7z"/>
<path d="M6999 3084 c-10 -13 -10 -17 2 -25 19 -12 29 -11 29 2 0 5 5 7 12 3
8 -5 9 -2 5 10 -4 10 -7 20 -7 22 0 11 -29 2 -41 -12z"/>
<path d="M5702 3400 c0 -14 2 -19 5 -12 2 6 2 18 0 25 -3 6 -5 1 -5 -13z"/>
<path d="M2701 3174 c0 -11 3 -14 6 -6 3 7 2 16 -1 19 -3 4 -6 -2 -5 -13z"/>
<path d="M7625 3040 c-8 -13 25 -13 45 0 12 8 9 10 -12 10 -15 0 -30 -4 -33
-10z"/>
<path d="M7187 1903 c-4 -3 -7 -11 -7 -17 0 -6 5 -5 12 2 6 6 9 14 7 17 -3 3
-9 2 -12 -2z"/>
<path d="M7935 1810 c-10 -11 -25 -22 -35 -25 -10 -3 -26 -30 -38 -60 -20 -56
-15 -72 12 -34 8 12 25 27 37 33 15 7 27 27 35 59 6 26 11 47 10 47 -2 0 -11
-9 -21 -20z"/>
<path d="M7905 1690 c-3 -5 -1 -10 4 -10 6 0 11 5 11 10 0 6 -2 10 -4 10 -3 0
-8 -4 -11 -10z"/>
<path d="M7820 1614 c-14 -35 -9 -38 13 -9 10 15 13 26 7 30 -6 3 -15 -6 -20
-21z"/>
<path d="M7790 1540 c-14 -33 -7 -50 20 -50 13 0 17 7 16 24 -1 20 -4 22 -15
13 -12 -10 -12 -9 -3 10 7 12 8 24 3 27 -5 3 -14 -7 -21 -24z"/>
<path d="M7735 1410 c-4 -12 -5 -24 -2 -27 3 -2 8 5 12 17 4 12 5 24 2 27 -3
2 -8 -5 -12 -17z"/>
<path d="M7705 1331 c-3 -5 -1 -12 5 -16 5 -3 10 1 10 9 0 18 -6 21 -15 7z"/>
</g>
</svg>
